<?xml version="1.0" encoding="UTF-8"?>
<svg id="_레이어_2" data-name="레이어 2" xmlns="http://www.w3.org/2000/svg" xmlns:xlink="http://www.w3.org/1999/xlink" viewBox="0 0 113.52 123.73">
  <defs>
    <style>
      .cls-1 {
        fill: #7da5d7;
      }

      .cls-2 {
        clip-path: url(#clippath-2);
      }

      .cls-3 {
        fill: #7ca3cd;
      }

      .cls-4 {
        clip-path: url(#clippath-1);
      }

      .cls-5 {
        clip-path: url(#clippath);
      }

      .cls-6 {
        fill: none;
      }

      .cls-7 {
        clip-path: url(#clippath-3);
      }

      .cls-8 {
        fill: #231815;
      }
    </style>
    <clipPath id="clippath">
      <rect class="cls-6" width="58.65" height="50.55"/>
    </clipPath>
    <clipPath id="clippath-1">
      <polygon class="cls-6" points="16.98 77.87 16.98 89.23 8.04 89.23 5.23 77.33 16.98 77.87"/>
    </clipPath>
    <clipPath id="clippath-2">
      <polygon class="cls-6" points="24.13 34.04 13.06 50.55 32.38 50.55 32.04 65.79 32.04 79.23 60.83 61.53 67.62 29.28 24.13 34.04"/>
    </clipPath>
    <clipPath id="clippath-3">
      <polygon class="cls-6" points="22.01 50.27 22.01 36.31 73.24 25.25 67.8 57.59 32.9 77.33 22.01 50.27"/>
    </clipPath>
  </defs>
  <g class="cls-5">
    <path class="cls-1" d="m12.21,87.66c-.75,0-1.48-.33-1.98-.97-.85-1.09-.65-2.66.44-3.51,39.95-31.08,46.35-42.89,45.44-44.82-.03-.03-.23-.18-.71-.3-3.68-.92-12.82,2.05-20.89,4.68-12.88,4.19-20.98,6.6-24.92,3.53-.99-.77-2.14-2.24-1.96-4.84C8.47,29.33,44.66,7.43,51.9,3.16c1.19-.7,2.72-.3,3.42.89.7,1.19.3,2.72-.89,3.42C37.36,17.53,13.11,34.82,12.63,41.78c-.03.41.04.55.04.56,1.66,1.72,13.79-2.22,20.3-4.34,9.55-3.11,18.57-6.04,23.65-4.77,3.23.81,4.14,2.95,4.4,4.16.6,2.84-.32,7.71-12.85,20.24-8.06,8.06-19.97,18.27-34.43,29.52-.46.35-1,.53-1.53.53Z"/>
  </g>
  <path class="cls-8" d="m50.07,123.73c-1.38,0-2.5-1.12-2.5-2.5v-28.72c0-1.38,1.12-2.5,2.5-2.5s2.5,1.12,2.5,2.5v28.72c0,1.38-1.12,2.5-2.5,2.5Z"/>
  <path class="cls-8" d="m50.66,104.9c-.46,0-.93-.13-1.35-.4-1.16-.75-1.49-2.29-.75-3.44,2.98-4.65,11.94-12.64,24.57-9.66,1.34.32,2.18,1.66,1.86,3.01-.32,1.34-1.66,2.18-3.01,1.86-12.28-2.9-18.94,7.07-19.22,7.5-.48.74-1.28,1.14-2.1,1.14Z"/>
  <path class="cls-8" d="m97.35,123.67c-8.91,0-16.17-7.39-16.17-16.47s7.25-16.47,16.17-16.47,16.17,7.39,16.17,16.47-7.25,16.47-16.17,16.47Zm0-27.94c-6.16,0-11.17,5.15-11.17,11.47s5.01,11.47,11.17,11.47,11.17-5.15,11.17-11.47-5.01-11.47-11.17-11.47Z"/>
  <path class="cls-8" d="m25.18,122.95s.01-.03.02-.05l1.8-4.55h-5l1.86,4.68h.02c.13.3.36.51.63.51s.5-.21.63-.51h0l.03-.09Z"/>
  <g>
    <rect class="cls-8" x="22.01" y="55.38" width="5" height=".64"/>
    <rect class="cls-8" x="22.01" y="56.51" width="5" height=".64"/>
    <path class="cls-8" d="m27.01,54.88v-.91c0-1.14-.95-2.06-2.12-2.06h-.76c-1.17,0-2.12.92-2.12,2.06v.91h5Z"/>
    <rect class="cls-8" x="22.01" y="57.63" width="5" height="60.73"/>
  </g>
  <g class="cls-4">
    <path class="cls-1" d="m12.21,87.66c-.75,0-1.48-.33-1.98-.97-.85-1.09-.65-2.66.44-3.51,39.95-31.08,46.35-42.89,45.44-44.82-.03-.03-.23-.18-.71-.3-3.68-.92-12.82,2.05-20.89,4.68-12.88,4.19-20.98,6.6-24.92,3.53-.99-.77-2.14-2.24-1.96-4.84C8.47,29.33,44.66,7.43,51.9,3.16c1.19-.7,2.72-.3,3.42.89.7,1.19.3,2.72-.89,3.42C37.36,17.53,13.11,34.82,12.63,41.78c-.03.41.04.55.04.56,1.66,1.72,13.79-2.22,20.3-4.34,9.55-3.11,18.57-6.04,23.65-4.77,3.23.81,4.14,2.95,4.4,4.16.6,2.84-.32,7.71-12.85,20.24-8.06,8.06-19.97,18.27-34.43,29.52-.46.35-1,.53-1.53.53Z"/>
  </g>
  <g class="cls-2">
    <g class="cls-7">
      <path class="cls-8" d="m12.15,87.67c-.75,0-1.48-.33-1.98-.97-.85-1.09-.65-2.66.44-3.51,39.95-31.08,46.35-42.89,45.44-44.82-.03-.03-.23-.18-.71-.3-3.68-.92-12.82,2.05-20.89,4.68-12.88,4.19-20.98,6.6-24.92,3.53-.99-.77-2.14-2.24-1.96-4.84C8.41,29.35,44.59,7.45,51.84,3.18c1.19-.7,2.72-.3,3.42.89s.3,2.72-.89,3.42C37.3,17.54,13.05,34.84,12.57,41.79c-.03.41.04.55.04.56,1.66,1.72,13.79-2.22,20.3-4.34,9.55-3.11,18.57-6.04,23.65-4.77,3.23.81,4.14,2.95,4.4,4.16.6,2.84-.32,7.71-12.85,20.24-8.06,8.06-19.97,18.27-34.43,29.52-.46.35-1,.53-1.53.53Z"/>
    </g>
  </g>
  <polygon class="cls-3" points="22.99 46.27 23.31 46.19 21.7 45.84 21.83 46.56 22.99 46.27"/>
  <ellipse class="cls-8" cx="22.56" cy="43.8" rx="2.22" ry="2.5" transform="translate(-9.37 6.28) rotate(-13.15)"/>
</svg>